<mxfile host="app.diagrams.net" modified="2023-06-27T15:37:11.154Z" agent="Mozilla/5.0 (X11; Linux x86_64) AppleWebKit/537.36 (KHTML, like Gecko) Chrome/111.0.0.0 Safari/537.36" version="21.5.1" etag="WrpJPGvjwPcX-YB84wPD" type="github">
  <diagram name="第 1 页" id="E6oDrkw3hYDFD17rWhZb">
    <mxGraphModel>
      <root>
        <mxCell id="0" />
        <mxCell id="1" parent="0" />
      </root>
    </mxGraphModel>
  </diagram>
</mxfile>
